<mxfile host="app.diagrams.net" modified="2023-09-12T14:24:54.748Z" agent="Mozilla/5.0 (Windows NT 10.0; Win64; x64) AppleWebKit/537.36 (KHTML, like Gecko) Chrome/116.0.0.0 Safari/537.36" etag="6xDMu70hlYRxpjMc6v9S" version="21.7.4" type="google">
  <diagram id="R2lEEEUBdFMjLlhIrx00" name="Page-1">
    <mxGraphModel grid="1" page="1" gridSize="10" guides="1" tooltips="1" connect="1" arrows="1" fold="1" pageScale="1" pageWidth="850" pageHeight="1100" math="0" shadow="0" extFonts="Permanent Marker^https://fonts.googleapis.com/css?family=Permanent+Marker">
      <root>
        <mxCell id="0" />
        <mxCell id="1" parent="0" />
        <mxCell id="IuiCC5z9jBLQKm-Q44v0-9" style="rounded=0;orthogonalLoop=1;jettySize=auto;html=1;endArrow=none;endFill=0;entryX=0.5;entryY=0;entryDx=0;entryDy=0;" edge="1" parent="1" source="IuiCC5z9jBLQKm-Q44v0-1" target="IuiCC5z9jBLQKm-Q44v0-8">
          <mxGeometry relative="1" as="geometry">
            <mxPoint x="169.5" y="195" as="sourcePoint" />
            <mxPoint x="169.5" y="285" as="targetPoint" />
            <Array as="points">
              <mxPoint x="170" y="200" />
              <mxPoint x="200" y="200" />
            </Array>
          </mxGeometry>
        </mxCell>
        <mxCell id="IuiCC5z9jBLQKm-Q44v0-1" value="Congresistas" style="whiteSpace=wrap;html=1;align=center;" vertex="1" parent="1">
          <mxGeometry x="120" y="140" width="100" height="40" as="geometry" />
        </mxCell>
        <mxCell id="IuiCC5z9jBLQKm-Q44v0-3" style="rounded=0;orthogonalLoop=1;jettySize=auto;html=1;endArrow=none;endFill=0;" edge="1" parent="1" source="IuiCC5z9jBLQKm-Q44v0-2" target="IuiCC5z9jBLQKm-Q44v0-1">
          <mxGeometry relative="1" as="geometry" />
        </mxCell>
        <mxCell id="IuiCC5z9jBLQKm-Q44v0-2" value="ID" style="ellipse;whiteSpace=wrap;html=1;align=center;fontStyle=4;" vertex="1" parent="1">
          <mxGeometry x="145" y="80" width="50" height="40" as="geometry" />
        </mxCell>
        <mxCell id="IuiCC5z9jBLQKm-Q44v0-10" style="rounded=0;orthogonalLoop=1;jettySize=auto;html=1;endArrow=none;endFill=0;" edge="1" parent="1" source="IuiCC5z9jBLQKm-Q44v0-4" target="IuiCC5z9jBLQKm-Q44v0-1">
          <mxGeometry relative="1" as="geometry" />
        </mxCell>
        <mxCell id="IuiCC5z9jBLQKm-Q44v0-4" value="Apellido" style="ellipse;whiteSpace=wrap;html=1;align=center;" vertex="1" parent="1">
          <mxGeometry x="10" y="135" width="50" height="50" as="geometry" />
        </mxCell>
        <mxCell id="IuiCC5z9jBLQKm-Q44v0-12" style="rounded=0;orthogonalLoop=1;jettySize=auto;html=1;endArrow=none;endFill=0;entryX=0;entryY=0.25;entryDx=0;entryDy=0;" edge="1" parent="1" source="IuiCC5z9jBLQKm-Q44v0-5" target="IuiCC5z9jBLQKm-Q44v0-1">
          <mxGeometry relative="1" as="geometry">
            <Array as="points">
              <mxPoint x="70" y="150" />
            </Array>
          </mxGeometry>
        </mxCell>
        <mxCell id="IuiCC5z9jBLQKm-Q44v0-5" value="Institucion" style="ellipse;whiteSpace=wrap;html=1;align=center;" vertex="1" parent="1">
          <mxGeometry x="40" y="75" width="60" height="50" as="geometry" />
        </mxCell>
        <mxCell id="IuiCC5z9jBLQKm-Q44v0-13" style="rounded=0;orthogonalLoop=1;jettySize=auto;html=1;entryX=0.82;entryY=1.025;entryDx=0;entryDy=0;entryPerimeter=0;endArrow=none;endFill=0;" edge="1" parent="1" source="IuiCC5z9jBLQKm-Q44v0-6" target="IuiCC5z9jBLQKm-Q44v0-1">
          <mxGeometry relative="1" as="geometry" />
        </mxCell>
        <mxCell id="IuiCC5z9jBLQKm-Q44v0-6" value="Telefono" style="ellipse;shape=doubleEllipse;margin=3;whiteSpace=wrap;html=1;align=center;" vertex="1" parent="1">
          <mxGeometry x="270" y="160" width="100" height="40" as="geometry" />
        </mxCell>
        <mxCell id="IuiCC5z9jBLQKm-Q44v0-11" style="rounded=0;orthogonalLoop=1;jettySize=auto;html=1;entryX=1;entryY=0;entryDx=0;entryDy=0;endArrow=none;endFill=0;" edge="1" parent="1" source="IuiCC5z9jBLQKm-Q44v0-7" target="IuiCC5z9jBLQKm-Q44v0-1">
          <mxGeometry relative="1" as="geometry">
            <Array as="points">
              <mxPoint x="280" y="140" />
            </Array>
          </mxGeometry>
        </mxCell>
        <mxCell id="IuiCC5z9jBLQKm-Q44v0-7" value="Correo" style="ellipse;shape=doubleEllipse;margin=3;whiteSpace=wrap;html=1;align=center;" vertex="1" parent="1">
          <mxGeometry x="230" y="70" width="100" height="40" as="geometry" />
        </mxCell>
        <mxCell id="IuiCC5z9jBLQKm-Q44v0-8" value="Nombre&lt;br&gt;" style="ellipse;whiteSpace=wrap;html=1;align=center;" vertex="1" parent="1">
          <mxGeometry x="150" y="210" width="100" height="40" as="geometry" />
        </mxCell>
        <mxCell id="IuiCC5z9jBLQKm-Q44v0-22" value="Trabajos" style="whiteSpace=wrap;html=1;align=center;" vertex="1" parent="1">
          <mxGeometry x="80" y="425" width="100" height="40" as="geometry" />
        </mxCell>
        <mxCell id="IuiCC5z9jBLQKm-Q44v0-23" style="rounded=0;orthogonalLoop=1;jettySize=auto;html=1;endArrow=none;endFill=0;" edge="1" parent="1" source="IuiCC5z9jBLQKm-Q44v0-24" target="IuiCC5z9jBLQKm-Q44v0-22">
          <mxGeometry relative="1" as="geometry" />
        </mxCell>
        <mxCell id="IuiCC5z9jBLQKm-Q44v0-24" value="ID" style="ellipse;whiteSpace=wrap;html=1;align=center;fontStyle=4;" vertex="1" parent="1">
          <mxGeometry x="105" y="365" width="50" height="40" as="geometry" />
        </mxCell>
        <mxCell id="IuiCC5z9jBLQKm-Q44v0-25" style="rounded=0;orthogonalLoop=1;jettySize=auto;html=1;endArrow=none;endFill=0;entryX=1;entryY=0.25;entryDx=0;entryDy=0;" edge="1" parent="1" source="IuiCC5z9jBLQKm-Q44v0-26" target="IuiCC5z9jBLQKm-Q44v0-22">
          <mxGeometry relative="1" as="geometry">
            <Array as="points">
              <mxPoint x="235" y="435" />
            </Array>
          </mxGeometry>
        </mxCell>
        <mxCell id="IuiCC5z9jBLQKm-Q44v0-26" value="Abstract" style="ellipse;whiteSpace=wrap;html=1;align=center;" vertex="1" parent="1">
          <mxGeometry x="210" y="360" width="50" height="50" as="geometry" />
        </mxCell>
        <mxCell id="IuiCC5z9jBLQKm-Q44v0-27" style="rounded=0;orthogonalLoop=1;jettySize=auto;html=1;endArrow=none;endFill=0;entryX=0;entryY=0.25;entryDx=0;entryDy=0;" edge="1" parent="1" source="IuiCC5z9jBLQKm-Q44v0-28" target="IuiCC5z9jBLQKm-Q44v0-22">
          <mxGeometry relative="1" as="geometry">
            <Array as="points">
              <mxPoint x="30" y="435" />
            </Array>
          </mxGeometry>
        </mxCell>
        <mxCell id="IuiCC5z9jBLQKm-Q44v0-28" value="Titulo" style="ellipse;whiteSpace=wrap;html=1;align=center;" vertex="1" parent="1">
          <mxGeometry y="360" width="60" height="50" as="geometry" />
        </mxCell>
        <mxCell id="IuiCC5z9jBLQKm-Q44v0-35" value="Autores" style="whiteSpace=wrap;html=1;align=center;" vertex="1" parent="1">
          <mxGeometry x="90" y="615" width="100" height="40" as="geometry" />
        </mxCell>
        <mxCell id="IuiCC5z9jBLQKm-Q44v0-36" style="rounded=0;orthogonalLoop=1;jettySize=auto;html=1;endArrow=none;endFill=0;" edge="1" parent="1" source="IuiCC5z9jBLQKm-Q44v0-37" target="IuiCC5z9jBLQKm-Q44v0-35">
          <mxGeometry relative="1" as="geometry" />
        </mxCell>
        <mxCell id="IuiCC5z9jBLQKm-Q44v0-37" value="ID" style="ellipse;whiteSpace=wrap;html=1;align=center;fontStyle=4;" vertex="1" parent="1">
          <mxGeometry x="115" y="555" width="50" height="40" as="geometry" />
        </mxCell>
        <mxCell id="IuiCC5z9jBLQKm-Q44v0-38" style="rounded=0;orthogonalLoop=1;jettySize=auto;html=1;endArrow=none;endFill=0;" edge="1" parent="1" source="IuiCC5z9jBLQKm-Q44v0-39" target="IuiCC5z9jBLQKm-Q44v0-35">
          <mxGeometry relative="1" as="geometry">
            <Array as="points">
              <mxPoint x="245" y="635" />
            </Array>
          </mxGeometry>
        </mxCell>
        <mxCell id="IuiCC5z9jBLQKm-Q44v0-39" value="Apellido" style="ellipse;whiteSpace=wrap;html=1;align=center;" vertex="1" parent="1">
          <mxGeometry x="220" y="550" width="50" height="50" as="geometry" />
        </mxCell>
        <mxCell id="IuiCC5z9jBLQKm-Q44v0-40" style="rounded=0;orthogonalLoop=1;jettySize=auto;html=1;endArrow=none;endFill=0;entryX=0;entryY=0.25;entryDx=0;entryDy=0;" edge="1" parent="1" source="IuiCC5z9jBLQKm-Q44v0-41" target="IuiCC5z9jBLQKm-Q44v0-35">
          <mxGeometry relative="1" as="geometry">
            <Array as="points">
              <mxPoint x="40" y="625" />
            </Array>
          </mxGeometry>
        </mxCell>
        <mxCell id="IuiCC5z9jBLQKm-Q44v0-41" value="Nombre" style="ellipse;whiteSpace=wrap;html=1;align=center;" vertex="1" parent="1">
          <mxGeometry x="10" y="550" width="60" height="50" as="geometry" />
        </mxCell>
        <mxCell id="IuiCC5z9jBLQKm-Q44v0-42" value="Sesiones del congreso" style="whiteSpace=wrap;html=1;align=center;" vertex="1" parent="1">
          <mxGeometry x="480" y="430" width="100" height="40" as="geometry" />
        </mxCell>
        <mxCell id="IuiCC5z9jBLQKm-Q44v0-43" style="rounded=0;orthogonalLoop=1;jettySize=auto;html=1;endArrow=none;endFill=0;" edge="1" parent="1" source="IuiCC5z9jBLQKm-Q44v0-44" target="IuiCC5z9jBLQKm-Q44v0-42">
          <mxGeometry relative="1" as="geometry" />
        </mxCell>
        <mxCell id="IuiCC5z9jBLQKm-Q44v0-44" value="ID" style="ellipse;whiteSpace=wrap;html=1;align=center;fontStyle=4;" vertex="1" parent="1">
          <mxGeometry x="505" y="485" width="50" height="40" as="geometry" />
        </mxCell>
        <mxCell id="IuiCC5z9jBLQKm-Q44v0-47" style="rounded=0;orthogonalLoop=1;jettySize=auto;html=1;endArrow=none;endFill=0;entryX=0;entryY=0.25;entryDx=0;entryDy=0;" edge="1" parent="1" source="IuiCC5z9jBLQKm-Q44v0-48" target="IuiCC5z9jBLQKm-Q44v0-42">
          <mxGeometry relative="1" as="geometry">
            <Array as="points">
              <mxPoint x="450" y="440" />
            </Array>
          </mxGeometry>
        </mxCell>
        <mxCell id="IuiCC5z9jBLQKm-Q44v0-48" value="Sala" style="ellipse;whiteSpace=wrap;html=1;align=center;" vertex="1" parent="1">
          <mxGeometry x="420" y="480" width="60" height="50" as="geometry" />
        </mxCell>
        <mxCell id="IuiCC5z9jBLQKm-Q44v0-50" value="Ponentes" style="whiteSpace=wrap;html=1;align=center;" vertex="1" parent="1">
          <mxGeometry x="480" y="720" width="100" height="40" as="geometry" />
        </mxCell>
        <mxCell id="IuiCC5z9jBLQKm-Q44v0-55" style="rounded=0;orthogonalLoop=1;jettySize=auto;html=1;endArrow=none;endFill=0;" edge="1" parent="1" source="IuiCC5z9jBLQKm-Q44v0-51" target="IuiCC5z9jBLQKm-Q44v0-50">
          <mxGeometry relative="1" as="geometry" />
        </mxCell>
        <mxCell id="IuiCC5z9jBLQKm-Q44v0-51" value="ID" style="ellipse;whiteSpace=wrap;html=1;align=center;fontStyle=4;" vertex="1" parent="1">
          <mxGeometry x="505" y="660" width="50" height="40" as="geometry" />
        </mxCell>
        <mxCell id="IuiCC5z9jBLQKm-Q44v0-56" value="Chairman de la sesión" style="whiteSpace=wrap;html=1;align=center;" vertex="1" parent="1">
          <mxGeometry x="723" y="460" width="100" height="40" as="geometry" />
        </mxCell>
        <mxCell id="IuiCC5z9jBLQKm-Q44v0-57" style="rounded=0;orthogonalLoop=1;jettySize=auto;html=1;endArrow=none;endFill=0;" edge="1" parent="1" source="IuiCC5z9jBLQKm-Q44v0-58" target="IuiCC5z9jBLQKm-Q44v0-56">
          <mxGeometry relative="1" as="geometry" />
        </mxCell>
        <mxCell id="IuiCC5z9jBLQKm-Q44v0-58" value="ID" style="ellipse;whiteSpace=wrap;html=1;align=center;fontStyle=4;" vertex="1" parent="1">
          <mxGeometry x="748" y="400" width="50" height="40" as="geometry" />
        </mxCell>
        <mxCell id="IuiCC5z9jBLQKm-Q44v0-60" style="rounded=0;orthogonalLoop=1;jettySize=auto;html=1;endArrow=none;endFill=0;" edge="1" parent="1" source="IuiCC5z9jBLQKm-Q44v0-59" target="IuiCC5z9jBLQKm-Q44v0-50">
          <mxGeometry relative="1" as="geometry" />
        </mxCell>
        <mxCell id="IuiCC5z9jBLQKm-Q44v0-59" value="Presentacion" style="ellipse;whiteSpace=wrap;html=1;align=center;" vertex="1" parent="1">
          <mxGeometry x="620" y="715" width="85" height="50" as="geometry" />
        </mxCell>
        <mxCell id="IuiCC5z9jBLQKm-Q44v0-63" style="edgeStyle=orthogonalEdgeStyle;rounded=0;orthogonalLoop=1;jettySize=auto;html=1;endArrow=none;endFill=0;" edge="1" parent="1" source="IuiCC5z9jBLQKm-Q44v0-61" target="IuiCC5z9jBLQKm-Q44v0-62">
          <mxGeometry relative="1" as="geometry" />
        </mxCell>
        <mxCell id="IuiCC5z9jBLQKm-Q44v0-61" value="Fecha" style="whiteSpace=wrap;html=1;align=center;" vertex="1" parent="1">
          <mxGeometry x="645" y="147.5" width="100" height="40" as="geometry" />
        </mxCell>
        <mxCell id="IuiCC5z9jBLQKm-Q44v0-62" value="ID" style="ellipse;whiteSpace=wrap;html=1;align=center;fontStyle=4;" vertex="1" parent="1">
          <mxGeometry x="675" y="192.5" width="50" height="35" as="geometry" />
        </mxCell>
        <mxCell id="IuiCC5z9jBLQKm-Q44v0-66" style="edgeStyle=orthogonalEdgeStyle;rounded=0;orthogonalLoop=1;jettySize=auto;html=1;endArrow=none;endFill=0;" edge="1" parent="1" source="IuiCC5z9jBLQKm-Q44v0-64" target="IuiCC5z9jBLQKm-Q44v0-61">
          <mxGeometry relative="1" as="geometry" />
        </mxCell>
        <mxCell id="IuiCC5z9jBLQKm-Q44v0-64" value="Dia" style="ellipse;whiteSpace=wrap;html=1;align=center;" vertex="1" parent="1">
          <mxGeometry x="675" y="92.5" width="40" height="40" as="geometry" />
        </mxCell>
        <mxCell id="IuiCC5z9jBLQKm-Q44v0-67" style="edgeStyle=orthogonalEdgeStyle;rounded=0;orthogonalLoop=1;jettySize=auto;html=1;endArrow=none;endFill=0;entryX=0;entryY=0.5;entryDx=0;entryDy=0;" edge="1" parent="1" source="IuiCC5z9jBLQKm-Q44v0-65" target="IuiCC5z9jBLQKm-Q44v0-61">
          <mxGeometry relative="1" as="geometry">
            <mxPoint x="615" y="237.5" as="targetPoint" />
          </mxGeometry>
        </mxCell>
        <mxCell id="IuiCC5z9jBLQKm-Q44v0-65" value="Hora" style="ellipse;whiteSpace=wrap;html=1;align=center;" vertex="1" parent="1">
          <mxGeometry x="590" y="147.5" width="30" height="30" as="geometry" />
        </mxCell>
        <mxCell id="IuiCC5z9jBLQKm-Q44v0-120" style="rounded=0;orthogonalLoop=1;jettySize=auto;html=1;edgeStyle=orthogonalEdgeStyle;endArrow=none;endFill=0;" edge="1" parent="1" source="IuiCC5z9jBLQKm-Q44v0-119" target="IuiCC5z9jBLQKm-Q44v0-35">
          <mxGeometry relative="1" as="geometry">
            <Array as="points">
              <mxPoint x="290" y="625" />
              <mxPoint x="290" y="650" />
            </Array>
          </mxGeometry>
        </mxCell>
        <mxCell id="IuiCC5z9jBLQKm-Q44v0-124" value="M" style="edgeLabel;html=1;align=center;verticalAlign=middle;resizable=0;points=[];" connectable="0" vertex="1" parent="IuiCC5z9jBLQKm-Q44v0-120">
          <mxGeometry x="-0.1333" y="1" relative="1" as="geometry">
            <mxPoint x="-23" y="4" as="offset" />
          </mxGeometry>
        </mxCell>
        <mxCell id="IuiCC5z9jBLQKm-Q44v0-121" style="rounded=0;orthogonalLoop=1;jettySize=auto;html=1;entryX=1;entryY=0.75;entryDx=0;entryDy=0;edgeStyle=orthogonalEdgeStyle;endArrow=none;endFill=0;" edge="1" parent="1" source="IuiCC5z9jBLQKm-Q44v0-119" target="IuiCC5z9jBLQKm-Q44v0-22">
          <mxGeometry relative="1" as="geometry">
            <Array as="points">
              <mxPoint x="330" y="500" />
              <mxPoint x="180" y="500" />
            </Array>
          </mxGeometry>
        </mxCell>
        <mxCell id="IuiCC5z9jBLQKm-Q44v0-123" value="M" style="edgeLabel;html=1;align=center;verticalAlign=middle;resizable=0;points=[];" connectable="0" vertex="1" parent="IuiCC5z9jBLQKm-Q44v0-121">
          <mxGeometry x="0.6114" y="2" relative="1" as="geometry">
            <mxPoint as="offset" />
          </mxGeometry>
        </mxCell>
        <mxCell id="IuiCC5z9jBLQKm-Q44v0-119" value="Tienen" style="shape=rhombus;perimeter=rhombusPerimeter;whiteSpace=wrap;html=1;align=center;" vertex="1" parent="1">
          <mxGeometry x="300" y="600" width="60" height="45" as="geometry" />
        </mxCell>
        <mxCell id="IuiCC5z9jBLQKm-Q44v0-126" style="edgeStyle=orthogonalEdgeStyle;rounded=0;orthogonalLoop=1;jettySize=auto;html=1;endArrow=none;endFill=0;" edge="1" parent="1" source="IuiCC5z9jBLQKm-Q44v0-125" target="IuiCC5z9jBLQKm-Q44v0-42">
          <mxGeometry relative="1" as="geometry">
            <Array as="points">
              <mxPoint x="315" y="450" />
            </Array>
          </mxGeometry>
        </mxCell>
        <mxCell id="IuiCC5z9jBLQKm-Q44v0-129" value="1" style="edgeLabel;html=1;align=center;verticalAlign=middle;resizable=0;points=[];" connectable="0" vertex="1" parent="IuiCC5z9jBLQKm-Q44v0-126">
          <mxGeometry x="-0.3158" y="4" relative="1" as="geometry">
            <mxPoint as="offset" />
          </mxGeometry>
        </mxCell>
        <mxCell id="IuiCC5z9jBLQKm-Q44v0-127" style="edgeStyle=orthogonalEdgeStyle;rounded=0;orthogonalLoop=1;jettySize=auto;html=1;endArrow=none;endFill=0;" edge="1" parent="1" source="IuiCC5z9jBLQKm-Q44v0-125" target="IuiCC5z9jBLQKm-Q44v0-22">
          <mxGeometry relative="1" as="geometry">
            <Array as="points">
              <mxPoint x="310" y="450" />
            </Array>
          </mxGeometry>
        </mxCell>
        <mxCell id="IuiCC5z9jBLQKm-Q44v0-130" value="N" style="edgeLabel;html=1;align=center;verticalAlign=middle;resizable=0;points=[];" connectable="0" vertex="1" parent="IuiCC5z9jBLQKm-Q44v0-127">
          <mxGeometry x="0.9138" y="-1" relative="1" as="geometry">
            <mxPoint as="offset" />
          </mxGeometry>
        </mxCell>
        <mxCell id="IuiCC5z9jBLQKm-Q44v0-125" value="Tiener" style="shape=rhombus;perimeter=rhombusPerimeter;whiteSpace=wrap;html=1;align=center;" vertex="1" parent="1">
          <mxGeometry x="280" y="365" width="70" height="50" as="geometry" />
        </mxCell>
        <mxCell id="IuiCC5z9jBLQKm-Q44v0-134" style="edgeStyle=orthogonalEdgeStyle;rounded=0;orthogonalLoop=1;jettySize=auto;html=1;endArrow=none;endFill=0;" edge="1" parent="1" source="IuiCC5z9jBLQKm-Q44v0-132" target="IuiCC5z9jBLQKm-Q44v0-1">
          <mxGeometry relative="1" as="geometry">
            <Array as="points">
              <mxPoint x="440" y="150" />
            </Array>
          </mxGeometry>
        </mxCell>
        <mxCell id="IuiCC5z9jBLQKm-Q44v0-137" value="M" style="edgeLabel;html=1;align=center;verticalAlign=middle;resizable=0;points=[];" connectable="0" vertex="1" parent="IuiCC5z9jBLQKm-Q44v0-134">
          <mxGeometry x="-0.0625" y="-1" relative="1" as="geometry">
            <mxPoint as="offset" />
          </mxGeometry>
        </mxCell>
        <mxCell id="IuiCC5z9jBLQKm-Q44v0-135" style="edgeStyle=orthogonalEdgeStyle;rounded=0;orthogonalLoop=1;jettySize=auto;html=1;endArrow=none;endFill=0;" edge="1" parent="1" source="IuiCC5z9jBLQKm-Q44v0-132" target="IuiCC5z9jBLQKm-Q44v0-42">
          <mxGeometry relative="1" as="geometry">
            <Array as="points">
              <mxPoint x="420" y="300" />
              <mxPoint x="530" y="300" />
            </Array>
          </mxGeometry>
        </mxCell>
        <mxCell id="IuiCC5z9jBLQKm-Q44v0-136" value="M" style="edgeLabel;html=1;align=center;verticalAlign=middle;resizable=0;points=[];" connectable="0" vertex="1" parent="IuiCC5z9jBLQKm-Q44v0-135">
          <mxGeometry x="0.2286" y="1" relative="1" as="geometry">
            <mxPoint as="offset" />
          </mxGeometry>
        </mxCell>
        <mxCell id="IuiCC5z9jBLQKm-Q44v0-132" value="Tienen" style="shape=rhombus;perimeter=rhombusPerimeter;whiteSpace=wrap;html=1;align=center;" vertex="1" parent="1">
          <mxGeometry x="380" y="250" width="80" height="40" as="geometry" />
        </mxCell>
        <mxCell id="IuiCC5z9jBLQKm-Q44v0-139" style="edgeStyle=orthogonalEdgeStyle;rounded=0;orthogonalLoop=1;jettySize=auto;html=1;entryX=1;entryY=1;entryDx=0;entryDy=0;endArrow=none;endFill=0;" edge="1" parent="1" source="IuiCC5z9jBLQKm-Q44v0-138" target="IuiCC5z9jBLQKm-Q44v0-22">
          <mxGeometry relative="1" as="geometry">
            <Array as="points">
              <mxPoint x="390" y="465" />
            </Array>
          </mxGeometry>
        </mxCell>
        <mxCell id="IuiCC5z9jBLQKm-Q44v0-141" value="1" style="edgeLabel;html=1;align=center;verticalAlign=middle;resizable=0;points=[];" connectable="0" vertex="1" parent="IuiCC5z9jBLQKm-Q44v0-139">
          <mxGeometry x="0.0029" relative="1" as="geometry">
            <mxPoint as="offset" />
          </mxGeometry>
        </mxCell>
        <mxCell id="IuiCC5z9jBLQKm-Q44v0-140" style="edgeStyle=orthogonalEdgeStyle;rounded=0;orthogonalLoop=1;jettySize=auto;html=1;endArrow=none;endFill=0;" edge="1" parent="1" source="IuiCC5z9jBLQKm-Q44v0-138" target="IuiCC5z9jBLQKm-Q44v0-50">
          <mxGeometry relative="1" as="geometry">
            <Array as="points">
              <mxPoint x="450" y="740" />
            </Array>
          </mxGeometry>
        </mxCell>
        <mxCell id="IuiCC5z9jBLQKm-Q44v0-143" value="1" style="edgeLabel;html=1;align=center;verticalAlign=middle;resizable=0;points=[];" connectable="0" vertex="1" parent="IuiCC5z9jBLQKm-Q44v0-140">
          <mxGeometry x="-0.1857" relative="1" as="geometry">
            <mxPoint as="offset" />
          </mxGeometry>
        </mxCell>
        <mxCell id="IuiCC5z9jBLQKm-Q44v0-138" value="Tiene" style="shape=rhombus;perimeter=rhombusPerimeter;whiteSpace=wrap;html=1;align=center;" vertex="1" parent="1">
          <mxGeometry x="390" y="570" width="70" height="40" as="geometry" />
        </mxCell>
        <mxCell id="IuiCC5z9jBLQKm-Q44v0-145" style="edgeStyle=orthogonalEdgeStyle;rounded=0;orthogonalLoop=1;jettySize=auto;html=1;endArrow=none;endFill=0;" edge="1" parent="1" source="IuiCC5z9jBLQKm-Q44v0-144" target="IuiCC5z9jBLQKm-Q44v0-61">
          <mxGeometry relative="1" as="geometry">
            <Array as="points">
              <mxPoint x="663" y="244" />
              <mxPoint x="660" y="244" />
            </Array>
          </mxGeometry>
        </mxCell>
        <mxCell id="IuiCC5z9jBLQKm-Q44v0-148" value="M" style="edgeLabel;html=1;align=center;verticalAlign=middle;resizable=0;points=[];" connectable="0" vertex="1" parent="IuiCC5z9jBLQKm-Q44v0-145">
          <mxGeometry x="0.2641" y="1" relative="1" as="geometry">
            <mxPoint as="offset" />
          </mxGeometry>
        </mxCell>
        <mxCell id="IuiCC5z9jBLQKm-Q44v0-146" style="edgeStyle=orthogonalEdgeStyle;rounded=0;orthogonalLoop=1;jettySize=auto;html=1;endArrow=none;endFill=0;" edge="1" parent="1" source="IuiCC5z9jBLQKm-Q44v0-144" target="IuiCC5z9jBLQKm-Q44v0-42">
          <mxGeometry relative="1" as="geometry">
            <Array as="points">
              <mxPoint x="560" y="330" />
            </Array>
          </mxGeometry>
        </mxCell>
        <mxCell id="IuiCC5z9jBLQKm-Q44v0-147" value="M" style="edgeLabel;html=1;align=center;verticalAlign=middle;resizable=0;points=[];" connectable="0" vertex="1" parent="IuiCC5z9jBLQKm-Q44v0-146">
          <mxGeometry x="0.3147" y="-2" relative="1" as="geometry">
            <mxPoint as="offset" />
          </mxGeometry>
        </mxCell>
        <mxCell id="IuiCC5z9jBLQKm-Q44v0-144" value="Relationship" style="shape=rhombus;perimeter=rhombusPerimeter;whiteSpace=wrap;html=1;align=center;" vertex="1" parent="1">
          <mxGeometry x="603" y="300" width="120" height="60" as="geometry" />
        </mxCell>
        <mxCell id="IuiCC5z9jBLQKm-Q44v0-150" style="edgeStyle=orthogonalEdgeStyle;rounded=0;orthogonalLoop=1;jettySize=auto;html=1;entryX=0.5;entryY=1;entryDx=0;entryDy=0;endArrow=none;endFill=0;" edge="1" parent="1" source="IuiCC5z9jBLQKm-Q44v0-149" target="IuiCC5z9jBLQKm-Q44v0-35">
          <mxGeometry relative="1" as="geometry" />
        </mxCell>
        <mxCell id="IuiCC5z9jBLQKm-Q44v0-153" value="1" style="edgeLabel;html=1;align=center;verticalAlign=middle;resizable=0;points=[];" connectable="0" vertex="1" parent="IuiCC5z9jBLQKm-Q44v0-150">
          <mxGeometry x="0.2387" y="1" relative="1" as="geometry">
            <mxPoint as="offset" />
          </mxGeometry>
        </mxCell>
        <mxCell id="IuiCC5z9jBLQKm-Q44v0-151" style="edgeStyle=orthogonalEdgeStyle;rounded=0;orthogonalLoop=1;jettySize=auto;html=1;entryX=0.25;entryY=1;entryDx=0;entryDy=0;endArrow=none;endFill=0;" edge="1" parent="1" source="IuiCC5z9jBLQKm-Q44v0-149" target="IuiCC5z9jBLQKm-Q44v0-50">
          <mxGeometry relative="1" as="geometry" />
        </mxCell>
        <mxCell id="IuiCC5z9jBLQKm-Q44v0-152" value="1" style="edgeLabel;html=1;align=center;verticalAlign=middle;resizable=0;points=[];" connectable="0" vertex="1" parent="IuiCC5z9jBLQKm-Q44v0-151">
          <mxGeometry x="0.3966" y="-2" relative="1" as="geometry">
            <mxPoint as="offset" />
          </mxGeometry>
        </mxCell>
        <mxCell id="IuiCC5z9jBLQKm-Q44v0-149" value="Tiene" style="shape=rhombus;perimeter=rhombusPerimeter;whiteSpace=wrap;html=1;align=center;" vertex="1" parent="1">
          <mxGeometry x="200" y="730" width="60" height="40" as="geometry" />
        </mxCell>
        <mxCell id="IuiCC5z9jBLQKm-Q44v0-155" style="edgeStyle=orthogonalEdgeStyle;rounded=0;orthogonalLoop=1;jettySize=auto;html=1;endArrow=none;endFill=0;" edge="1" parent="1" source="IuiCC5z9jBLQKm-Q44v0-154" target="IuiCC5z9jBLQKm-Q44v0-42">
          <mxGeometry relative="1" as="geometry">
            <Array as="points">
              <mxPoint x="560" y="535" />
            </Array>
          </mxGeometry>
        </mxCell>
        <mxCell id="IuiCC5z9jBLQKm-Q44v0-157" value="1" style="edgeLabel;html=1;align=center;verticalAlign=middle;resizable=0;points=[];" connectable="0" vertex="1" parent="IuiCC5z9jBLQKm-Q44v0-155">
          <mxGeometry x="-0.28" y="-1" relative="1" as="geometry">
            <mxPoint as="offset" />
          </mxGeometry>
        </mxCell>
        <mxCell id="IuiCC5z9jBLQKm-Q44v0-156" style="edgeStyle=orthogonalEdgeStyle;rounded=0;orthogonalLoop=1;jettySize=auto;html=1;endArrow=none;endFill=0;" edge="1" parent="1" source="IuiCC5z9jBLQKm-Q44v0-154" target="IuiCC5z9jBLQKm-Q44v0-56">
          <mxGeometry relative="1" as="geometry">
            <Array as="points">
              <mxPoint x="740" y="435" />
            </Array>
          </mxGeometry>
        </mxCell>
        <mxCell id="IuiCC5z9jBLQKm-Q44v0-158" value="1" style="edgeLabel;html=1;align=center;verticalAlign=middle;resizable=0;points=[];" connectable="0" vertex="1" parent="IuiCC5z9jBLQKm-Q44v0-156">
          <mxGeometry x="0.1169" y="-1" relative="1" as="geometry">
            <mxPoint as="offset" />
          </mxGeometry>
        </mxCell>
        <mxCell id="IuiCC5z9jBLQKm-Q44v0-154" value="Tiene" style="shape=rhombus;perimeter=rhombusPerimeter;whiteSpace=wrap;html=1;align=center;" vertex="1" parent="1">
          <mxGeometry x="620" y="515" width="65" height="40" as="geometry" />
        </mxCell>
      </root>
    </mxGraphModel>
  </diagram>
</mxfile>
